<svg width="103" height="55" viewBox="0 0 103 55" fill="none" xmlns="http://www.w3.org/2000/svg">
<path d="M1.44 23.5C1.33333 23.5 1.28 23.4467 1.28 23.34L1.344 1.356C1.344 1.27067 1.38667 1.228 1.472 1.228H11.712C11.8187 1.228 11.872 1.27067 11.872 1.356V4.972C11.872 5.05733 11.8293 5.1 11.744 5.1H5.184V10.06H11.744C11.8293 10.06 11.872 10.1133 11.872 10.22L11.904 13.836C11.904 13.9213 11.8507 13.964 11.744 13.964H5.184V23.34C5.184 23.4467 5.13067 23.5 5.024 23.5H1.44ZM19.5125 23.82C18.3605 23.82 17.3045 23.532 16.3445 22.956C15.4058 22.3587 14.6485 21.58 14.0725 20.62C13.4965 19.6387 13.2085 18.5613 13.2085 17.388L13.2405 7.244C13.2405 6.07067 13.5178 5.004 14.0725 4.044C14.6485 3.084 15.4165 2.316 16.3765 1.74C17.3365 1.164 18.3818 0.875999 19.5125 0.875999C20.6645 0.875999 21.7098 1.164 22.6485 1.74C23.5872 2.316 24.3338 3.084 24.8885 4.044C25.4645 5.004 25.7525 6.07067 25.7525 7.244L25.7845 17.388C25.7845 18.5613 25.4965 19.6387 24.9205 20.62C24.3658 21.58 23.6085 22.3587 22.6485 22.956C21.7098 23.532 20.6645 23.82 19.5125 23.82ZM19.5125 19.948C20.1525 19.948 20.7072 19.692 21.1765 19.18C21.6672 18.6467 21.9125 18.0493 21.9125 17.388L21.8805 7.244C21.8805 6.54 21.6565 5.94267 21.2085 5.452C20.7605 4.96133 20.1952 4.716 19.5125 4.716C18.8512 4.716 18.2858 4.96133 17.8165 5.452C17.3472 5.92133 17.1125 6.51867 17.1125 7.244V17.388C17.1125 18.092 17.3472 18.7 17.8165 19.212C18.2858 19.7027 18.8512 19.948 19.5125 19.948ZM28.3455 23.5C28.2602 23.5 28.2175 23.4467 28.2175 23.34L28.2815 1.356C28.2815 1.27067 28.3242 1.228 28.4095 1.228H34.8735C36.0255 1.228 37.0815 1.516 38.0415 2.092C39.0228 2.64667 39.8015 3.404 40.3775 4.364C40.9535 5.30267 41.2415 6.36933 41.2415 7.564C41.2415 8.35333 41.1242 9.068 40.8895 9.708C40.6548 10.3267 40.3775 10.86 40.0575 11.308C39.7375 11.7347 39.4495 12.0547 39.1935 12.268C40.3455 13.548 40.9215 15.052 40.9215 16.78L40.9535 23.34C40.9535 23.4467 40.9002 23.5 40.7935 23.5H37.1775C37.0922 23.5 37.0495 23.468 37.0495 23.404V16.78C37.0495 16.012 36.7722 15.3507 36.2175 14.796C35.6842 14.22 35.0228 13.932 34.2335 13.932H32.1215L32.0895 23.34C32.0895 23.4467 32.0468 23.5 31.9615 23.5H28.3455ZM32.1215 10.092H34.8735C35.5348 10.092 36.1215 9.84667 36.6335 9.356C37.1455 8.86533 37.4015 8.268 37.4015 7.564C37.4015 6.88133 37.1455 6.29467 36.6335 5.804C36.1428 5.31333 35.5562 5.068 34.8735 5.068H32.1215V10.092ZM51.381 23.5C51.317 23.5 51.285 23.4573 51.285 23.372L51.317 14.284L47.029 1.356C47.0077 1.27067 47.0397 1.228 47.125 1.228H50.677C50.7837 1.228 50.8477 1.27067 50.869 1.356L53.237 9.964L55.637 1.356C55.6583 1.27067 55.7117 1.228 55.797 1.228H59.381C59.4663 1.228 59.4983 1.27067 59.477 1.356L55.157 14.156L55.189 23.372C55.189 23.4573 55.1463 23.5 55.061 23.5H51.381ZM66.1063 23.82C64.9543 23.82 63.8983 23.532 62.9383 22.956C61.9996 22.3587 61.2423 21.58 60.6663 20.62C60.0903 19.6387 59.8023 18.5613 59.8023 17.388L59.8343 7.244C59.8343 6.07067 60.1116 5.004 60.6663 4.044C61.2423 3.084 62.0103 2.316 62.9703 1.74C63.9303 1.164 64.9756 0.875999 66.1063 0.875999C67.2583 0.875999 68.3036 1.164 69.2423 1.74C70.1809 2.316 70.9276 3.084 71.4823 4.044C72.0583 5.004 72.3463 6.07067 72.3463 7.244L72.3783 17.388C72.3783 18.5613 72.0903 19.6387 71.5143 20.62C70.9596 21.58 70.2023 22.3587 69.2423 22.956C68.3036 23.532 67.2583 23.82 66.1063 23.82ZM66.1063 19.948C66.7463 19.948 67.3009 19.692 67.7703 19.18C68.2609 18.6467 68.5063 18.0493 68.5063 17.388L68.4743 7.244C68.4743 6.54 68.2503 5.94267 67.8023 5.452C67.3543 4.96133 66.7889 4.716 66.1063 4.716C65.4449 4.716 64.8796 4.96133 64.4103 5.452C63.9409 5.92133 63.7063 6.51867 63.7063 7.244V17.388C63.7063 18.092 63.9409 18.7 64.4103 19.212C64.8796 19.7027 65.4449 19.948 66.1063 19.948ZM80.8868 23.82C79.7561 23.82 78.7108 23.532 77.7508 22.956C76.7908 22.3587 76.0228 21.5693 75.4468 20.588C74.8921 19.6067 74.6148 18.5293 74.6148 17.356L74.6788 1.356C74.6788 1.27067 74.7214 1.228 74.8068 1.228H78.3908C78.4761 1.228 78.5188 1.27067 78.5188 1.356V17.356C78.5188 18.0813 78.7428 18.7 79.1908 19.212C79.6601 19.7027 80.2254 19.948 80.8868 19.948C81.5694 19.948 82.1348 19.7027 82.5828 19.212C83.0521 18.7 83.2868 18.0813 83.2868 17.356V1.356C83.2868 1.27067 83.3294 1.228 83.4148 1.228H86.9988C87.0841 1.228 87.1268 1.27067 87.1268 1.356L87.1908 17.356C87.1908 18.5507 86.9028 19.6387 86.3268 20.62C85.7721 21.6013 85.0148 22.38 84.0548 22.956C83.1161 23.532 82.0601 23.82 80.8868 23.82ZM89.8455 23.5C89.7602 23.5 89.7175 23.4467 89.7175 23.34L89.7815 1.356C89.7815 1.27067 89.8242 1.228 89.9095 1.228H96.3735C97.5255 1.228 98.5815 1.516 99.5415 2.092C100.523 2.64667 101.302 3.404 101.878 4.364C102.454 5.30267 102.742 6.36933 102.742 7.564C102.742 8.35333 102.624 9.068 102.39 9.708C102.155 10.3267 101.878 10.86 101.558 11.308C101.238 11.7347 100.95 12.0547 100.694 12.268C101.846 13.548 102.422 15.052 102.422 16.78L102.454 23.34C102.454 23.4467 102.4 23.5 102.294 23.5H98.6775C98.5922 23.5 98.5495 23.468 98.5495 23.404V16.78C98.5495 16.012 98.2722 15.3507 97.7175 14.796C97.1842 14.22 96.5228 13.932 95.7335 13.932H93.6215L93.5895 23.34C93.5895 23.4467 93.5468 23.5 93.4615 23.5H89.8455ZM93.6215 10.092H96.3735C97.0348 10.092 97.6215 9.84667 98.1335 9.356C98.6455 8.86533 98.9015 8.268 98.9015 7.564C98.9015 6.88133 98.6455 6.29467 98.1335 5.804C97.6428 5.31333 97.0562 5.068 96.3735 5.068H93.6215V10.092Z" fill="white"/>
<path d="M6.72 54.82C5.568 54.82 4.512 54.532 3.552 53.956C2.61333 53.3587 1.856 52.58 1.28 51.62C0.725333 50.6387 0.448 49.5613 0.448 48.388V46.916C0.448 46.8093 0.501333 46.756 0.608 46.756H4.192C4.27733 46.756 4.32 46.8093 4.32 46.916V48.388C4.32 49.092 4.55467 49.7 5.024 50.212C5.49333 50.7027 6.05867 50.948 6.72 50.948C7.38133 50.948 7.94667 50.692 8.416 50.18C8.88533 49.668 9.12 49.0707 9.12 48.388C9.12 47.5987 8.608 46.916 7.584 46.34C7.24267 46.148 6.70933 45.8493 5.984 45.444C5.25867 45.0387 4.576 44.6547 3.936 44.292C2.76267 43.6093 1.888 42.756 1.312 41.732C0.757333 40.6867 0.48 39.5133 0.48 38.212C0.48 37.0173 0.768 35.9507 1.344 35.012C1.92 34.052 2.67733 33.2947 3.616 32.74C4.576 32.1853 5.61067 31.908 6.72 31.908C7.85067 31.908 8.88533 32.196 9.824 32.772C10.784 33.3267 11.5413 34.084 12.096 35.044C12.672 35.9827 12.96 37.0387 12.96 38.212V40.836C12.96 40.9213 12.9173 40.964 12.832 40.964H9.248C9.16267 40.964 9.12 40.9213 9.12 40.836L9.088 38.212C9.088 37.4653 8.85333 36.8573 8.384 36.388C7.91467 35.9187 7.36 35.684 6.72 35.684C6.05867 35.684 5.49333 35.94 5.024 36.452C4.55467 36.9427 4.32 37.5293 4.32 38.212C4.32 38.916 4.46933 39.5027 4.768 39.972C5.06667 40.4413 5.61067 40.8893 6.4 41.316C6.50667 41.38 6.70933 41.4973 7.008 41.668C7.328 41.8173 7.66933 41.9987 8.032 42.212C8.39467 42.404 8.71467 42.5747 8.992 42.724C9.29067 42.8733 9.472 42.9693 9.536 43.012C10.6027 43.6093 11.4453 44.3453 12.064 45.22C12.6827 46.0733 12.992 47.1293 12.992 48.388C12.992 49.604 12.704 50.7027 12.128 51.684C11.5733 52.644 10.816 53.412 9.856 53.988C8.91733 54.5427 7.872 54.82 6.72 54.82ZM13.5045 54.34L17.4725 32.356C17.4938 32.2707 17.5472 32.228 17.6325 32.228H22.2725C22.3578 32.228 22.4112 32.2707 22.4325 32.356L26.2405 54.34C26.2618 54.4467 26.2192 54.5 26.1125 54.5H22.5605C22.4752 54.5 22.4218 54.4467 22.4005 54.34L22.0485 52.004H17.6965L17.3445 54.34C17.3232 54.4467 17.2698 54.5 17.1845 54.5H13.6325C13.5472 54.5 13.5045 54.4467 13.5045 54.34ZM18.3365 48.58H21.4085L20.0965 39.588L19.9045 38.404L19.7765 39.588L18.3365 48.58ZM28.3768 54.5C28.2914 54.5 28.2488 54.4467 28.2488 54.34L28.2808 32.388C28.2808 32.2813 28.3341 32.228 28.4408 32.228H31.9928C32.0994 32.228 32.1528 32.2813 32.1528 32.388L32.1208 50.564H38.7128C38.8194 50.564 38.8728 50.6173 38.8728 50.724V54.34C38.8728 54.4467 38.8194 54.5 38.7128 54.5H28.3768ZM41.0955 54.5C41.0102 54.5 40.9675 54.4467 40.9675 54.34L40.9995 32.356C40.9995 32.2707 41.0422 32.228 41.1275 32.228H51.3995C51.4848 32.228 51.5275 32.2813 51.5275 32.388V35.972C51.5275 36.0573 51.4848 36.1 51.3995 36.1H44.8395V41.092H51.3995C51.4848 41.092 51.5275 41.1347 51.5275 41.22L51.5595 44.836C51.5595 44.9213 51.5168 44.964 51.4315 44.964H44.8395V50.564H51.4315C51.5168 50.564 51.5595 50.6173 51.5595 50.724V54.372C51.5595 54.4573 51.5168 54.5 51.4315 54.5H41.0955ZM59.6575 54.82C58.5055 54.82 57.4495 54.532 56.4895 53.956C55.5508 53.3587 54.7935 52.58 54.2175 51.62C53.6628 50.6387 53.3855 49.5613 53.3855 48.388V46.916C53.3855 46.8093 53.4388 46.756 53.5455 46.756H57.1295C57.2148 46.756 57.2575 46.8093 57.2575 46.916V48.388C57.2575 49.092 57.4922 49.7 57.9615 50.212C58.4308 50.7027 58.9962 50.948 59.6575 50.948C60.3188 50.948 60.8842 50.692 61.3535 50.18C61.8228 49.668 62.0575 49.0707 62.0575 48.388C62.0575 47.5987 61.5455 46.916 60.5215 46.34C60.1802 46.148 59.6468 45.8493 58.9215 45.444C58.1962 45.0387 57.5135 44.6547 56.8735 44.292C55.7002 43.6093 54.8255 42.756 54.2495 41.732C53.6948 40.6867 53.4175 39.5133 53.4175 38.212C53.4175 37.0173 53.7055 35.9507 54.2815 35.012C54.8575 34.052 55.6148 33.2947 56.5535 32.74C57.5135 32.1853 58.5482 31.908 59.6575 31.908C60.7882 31.908 61.8228 32.196 62.7615 32.772C63.7215 33.3267 64.4788 34.084 65.0335 35.044C65.6095 35.9827 65.8975 37.0387 65.8975 38.212V40.836C65.8975 40.9213 65.8548 40.964 65.7695 40.964H62.1855C62.1002 40.964 62.0575 40.9213 62.0575 40.836L62.0255 38.212C62.0255 37.4653 61.7908 36.8573 61.3215 36.388C60.8522 35.9187 60.2975 35.684 59.6575 35.684C58.9962 35.684 58.4308 35.94 57.9615 36.452C57.4922 36.9427 57.2575 37.5293 57.2575 38.212C57.2575 38.916 57.4068 39.5027 57.7055 39.972C58.0042 40.4413 58.5482 40.8893 59.3375 41.316C59.4442 41.38 59.6468 41.4973 59.9455 41.668C60.2655 41.8173 60.6068 41.9987 60.9695 42.212C61.3322 42.404 61.6522 42.5747 61.9295 42.724C62.2282 42.8733 62.4095 42.9693 62.4735 43.012C63.5402 43.6093 64.3828 44.3453 65.0015 45.22C65.6202 46.0733 65.9295 47.1293 65.9295 48.388C65.9295 49.604 65.6415 50.7027 65.0655 51.684C64.5108 52.644 63.7535 53.412 62.7935 53.988C61.8548 54.5427 60.8095 54.82 59.6575 54.82Z" fill="#34FF3C"/>
</svg>
